<?xml version="1.0" encoding="UTF-8" standalone="no"?>
<svg
   width="2660.6794"
   height="747.39429"
   xml:space="preserve"
   overflow="hidden"
   version="1.1"
   id="svg41"
   sodipodi:docname="diagram.svg"
   inkscape:version="1.3.2 (091e20e, 2023-11-25, custom)"
   inkscape:export-filename="diagram.pdf"
   inkscape:export-xdpi="96"
   inkscape:export-ydpi="96"
   xmlns:inkscape="http://www.inkscape.org/namespaces/inkscape"
   xmlns:sodipodi="http://sodipodi.sourceforge.net/DTD/sodipodi-0.dtd"
   xmlns="http://www.w3.org/2000/svg"
   xmlns:svg="http://www.w3.org/2000/svg"><defs
     id="defs41" /><sodipodi:namedview
     id="namedview41"
     pagecolor="#ffffff"
     bordercolor="#000000"
     borderopacity="0.25"
     inkscape:showpageshadow="2"
     inkscape:pageopacity="0.0"
     inkscape:pagecheckerboard="0"
     inkscape:deskcolor="#d1d1d1"
     showguides="true"
     inkscape:zoom="0.22216633"
     inkscape:cx="-76.519246"
     inkscape:cy="-157.53962"
     inkscape:window-width="1920"
     inkscape:window-height="1010"
     inkscape:window-x="1913"
     inkscape:window-y="-6"
     inkscape:window-maximized="1"
     inkscape:current-layer="svg41"><sodipodi:guide
       position="1483.1638,29.463721"
       orientation="0,-1"
       id="guide49"
       inkscape:locked="false" /></sodipodi:namedview><path
     d="m 211.94809,631.11579 h 208.54227 v 10.32 H 211.94809 Z m 203.4469,-10.31 30.57317,15.47 -30.57317,15.47 z"
     fill="#156082"
     id="path26"
     style="stroke-width:0.999997" /><path
     d="m 3.4375,639.27579 c 0,-41.15 53.77634,-74.5 120.11284,-74.5 66.33649,0 120.11282,33.35 120.11282,74.5 0,41.15 -53.77633,74.5 -120.11282,74.5 -66.3365,0 -120.11284,-33.35 -120.11284,-74.5 z"
     stroke="#042433"
     stroke-width="6.875"
     stroke-miterlimit="8"
     fill="#ebfcff"
     fill-rule="evenodd"
     id="path1" /><text
     font-family="Aptos, Aptos_MSFontService, sans-serif"
     font-weight="400"
     font-size="83px"
     id="text1"
     x="20.560163"
     y="665.27576">Start</text><rect
     x="449.09381"
     y="555.92413"
     width="570.42102"
     height="162.2067"
     stroke="#042433"
     stroke-width="7.17169"
     stroke-miterlimit="8"
     fill="#d8efff"
     id="rect1" /><text
     font-family="Aptos, Aptos_MSFontService, sans-serif"
     font-weight="400"
     font-size="83px"
     id="text2"
     x="472.26215"
     y="662.27576">Initializing <tspan
   style="font-style:italic"
   id="tspan48">G</tspan></text><path
     d="m 1525.5131,640.18064 h 94.2912 v -10.32 h -94.2912 z m 91.1385,10.31 18.9035,-15.47 -18.9035,-15.47 z"
     id="path39-5"
     style="stroke-width:0.78165" /><text
     font-family="Aptos, Aptos_MSFontService, sans-serif"
     font-weight="400"
     font-size="83px"
     id="text3"
     x="507.28278"
     y="63.060547">Pool gates</text><rect
     x="542.16315"
     y="102.27579"
     width="143"
     height="149"
     fill="#c04f15"
     id="rect3" /><text
     fill="#ffffff"
     font-family="Aptos, Aptos_MSFontService, sans-serif"
     font-weight="400"
     font-size="55px"
     id="text4"
     x="594.06012"
     y="194.27579">H</text><rect
     x="706.16315"
     y="102.27579"
     width="144"
     height="149"
     fill="#78206e"
     id="rect4" /><text
     fill="#ffffff"
     font-family="Aptos, Aptos_MSFontService, sans-serif"
     font-weight="400"
     font-size="55px"
     id="text5"
     x="738.08313"
     y="194.27579">CX</text><rect
     x="456.16315"
     y="270.27579"
     width="144"
     height="149"
     fill="#c00000"
     id="rect5" /><text
     fill="#ffffff"
     font-family="Aptos, Aptos_MSFontService, sans-serif"
     font-weight="400"
     font-size="55px"
     id="text6"
     x="501.44116"
     y="362.27579">R</text><text
     fill="#ffffff"
     font-family="Aptos, Aptos_MSFontService, sans-serif"
     font-weight="400"
     font-size="37px"
     id="text7"
     x="534.67017"
     y="375.27579"><tspan
       style="font-style:italic"
       id="tspan50">x</tspan></text><rect
     x="622.16315"
     y="270.27579"
     width="144"
     height="149"
     fill="#007bb8"
     id="rect7" /><text
     fill="#ffffff"
     font-family="Aptos, Aptos_MSFontService, sans-serif"
     font-weight="400"
     font-size="55px"
     id="text8"
     x="667.83313"
     y="362.27579">R</text><text
     fill="#ffffff"
     font-family="Aptos, Aptos_MSFontService, sans-serif"
     font-weight="400"
     font-size="37px"
     id="text9"
     x="699.92316"
     y="375.27579"><tspan
       style="font-style:italic"
       id="tspan51">y</tspan></text><rect
     x="792.16315"
     y="270.27579"
     width="143"
     height="149"
     fill="#388600"
     id="rect9" /><text
     fill="#ffffff"
     font-family="Aptos, Aptos_MSFontService, sans-serif"
     font-weight="400"
     font-size="55px"
     id="text10"
     x="837.04315"
     y="362.27579">R</text><text
     fill="#ffffff"
     font-family="Aptos, Aptos_MSFontService, sans-serif"
     font-weight="400"
     font-size="37px"
     id="text11"
     x="871.50311"
     y="375.27579"><tspan
       style="font-style:italic"
       id="tspan52">z</tspan></text><path
     d="m 436.31784,452.90107 c -14.4679,0 -26.19595,-13.244 -26.19595,-29.582 l -8.9e-4,-118.336 c 0,-16.338 -11.72806,-29.582 -26.19596,-29.582 14.4679,0 26.19596,-13.244 26.19596,-29.582 v -118.336 c 0,-16.338 11.72806,-29.582003 26.19596,-29.582003 m 513.3246,0 c 14.4609,0 26.1943,13.244003 26.1943,29.582003 v 118.336 c 0,16.338 11.7244,29.582 26.19414,29.582 -14.46974,0 -26.19414,13.244 -26.19414,29.582 v 118.336 c 0,16.338 -11.7334,29.582 -26.1943,29.582"
     stroke="#000000"
     stroke-width="6.46958"
     stroke-miterlimit="8"
     fill="none"
     fill-rule="evenodd"
     id="path11" /><rect
     x="1336.6632"
     y="558.77576"
     width="231.32603"
     height="158"
     stroke="#042433"
     stroke-width="6.875"
     stroke-miterlimit="8"
     fill="#b3ffc5"
     id="rect11" /><path
     d="m 1399.7032,609.37579 h 28.17 l -3.36,12.44 h -3.77 c -0.08,-2.16 -0.21,-3.74 -0.39,-4.72 -0.17,-0.99 -0.41,-1.67 -0.71,-2.03 -0.29,-0.37 -0.64,-0.61 -1.05,-0.73 -0.41,-0.12 -1.12,-0.18 -2.15,-0.18 h -12.16 l -4.29,19.9 19.65,-0.08 -0.81,3.48 -4.98,1.99 -15,-0.21 -2.43,11.27 c -0.4,1.92 -0.92,3.64 -1.54,5.17 -0.62,1.52 -1.4,2.88 -2.35,4.07 -0.94,1.19 -2.19,2.26 -3.75,3.2 -1.55,0.95 -2.98,1.58 -4.27,1.91 -1.3,0.32 -2.68,0.48 -4.14,0.48 -2.05,0 -3.89,-0.57 -5.51,-1.72 -1.62,-1.15 -3.07,-2.9 -4.34,-5.25 l 5.52,-3.16 c 1.13,2.24 2.23,3.9 3.28,4.97 1.05,1.06 2.21,1.6 3.48,1.6 0.65,0 1.3,-0.13 1.95,-0.39 0.65,-0.25 1.24,-0.76 1.76,-1.52 0.53,-0.75 0.99,-1.82 1.38,-3.2 0.39,-1.38 0.91,-3.61 1.56,-6.69 l 5.19,-25.12 c 0.89,-4.38 2.25,-7.81 4.09,-10.3 l -0.08,-0.4 c -4.48,0 -7.88,0.2 -10.19,0.61 -2.31,0.4 -3.97,1.09 -4.99,2.06 -1.01,0.98 -1.52,2.38 -1.52,4.22 0,1.38 0.48,3.05 1.42,5.02 l -6.24,2.43 c -0.59,-0.97 -1.02,-1.88 -1.28,-2.73 -0.25,-0.85 -0.38,-1.79 -0.38,-2.82 0,-1.13 0.34,-2.28 1.01,-3.44 0.79,-1.41 2.08,-2.83 3.89,-4.28 1.81,-1.44 3.66,-2.63 5.56,-3.56 1.89,-0.94 3.95,-1.57 6.2,-1.89 1.75,-0.27 4.28,-0.4 7.57,-0.4 z"
     fill-rule="evenodd"
     id="path12" /><text
     fill="#000000"
     fill-opacity="0"
     font-family="Arial, Arial_MSFontService, sans-serif"
     font-size="55.9683px"
     x="1370.5232"
     y="658.3457"
     id="text12">â„±</text><path
     d="m 1463.4332,606.12579 1.1,3.12 c -6.32,2.08 -11,6.14 -14.04,12.18 -3.04,6.04 -4.56,13.63 -4.56,22.76 0,9.45 1.52,17.25 4.56,23.38 3.04,6.14 7.68,10.24 13.92,12.32 l -0.98,3.12 c -7.91,-2.08 -13.98,-6.56 -18.19,-13.43 -4.22,-6.88 -6.32,-15.21 -6.32,-24.99 0,-9.75 2.11,-18.08 6.34,-24.98 4.23,-6.9 10.29,-11.4 18.17,-13.48 z"
     fill-rule="evenodd"
     id="path13" /><text
     fill="#000000"
     fill-opacity="0"
     font-family="Arial, Arial_MSFontService, sans-serif"
     font-size="76.8804px"
     x="1438.9232"
     y="673.39575"
     id="text13">(</text><path
     d="m 2257.0874,631.52716 h 174.1723 v 10.32 h -174.1723 z m 168.3526,-10.31 34.8954,15.47 -34.8954,15.47 z"
     id="path23-1"
     style="stroke-width:1.062" /><path
     d="m 1523.3532,606.12579 c 7.89,2.08 13.95,6.58 18.18,13.48 4.23,6.9 6.34,15.23 6.34,24.98 0,9.78 -2.1,18.11 -6.32,24.99 -4.21,6.87 -10.28,11.35 -18.2,13.43 l -0.97,-3.12 c 6.24,-2.08 10.88,-6.18 13.92,-12.32 3.04,-6.13 4.56,-13.93 4.56,-23.38 0,-9.13 -1.51,-16.72 -4.54,-22.76 -3.02,-6.04 -7.71,-10.1 -14.06,-12.18 z"
     fill-rule="evenodd"
     id="path15" /><text
     fill="#000000"
     fill-opacity="0"
     font-family="Arial, Arial_MSFontService, sans-serif"
     font-size="76.8804px"
     x="1522.2632"
     y="673.39575"
     id="text15">)</text><path
     d="m 2458.2419,636.76432 c 0,-54.95003 44.55,-99.50003 99.5,-99.50003 54.95,0 99.5,44.55 99.5,99.50003 0,54.94997 -44.55,99.49997 -99.5,99.49997 -54.95,0 -99.5,-44.55 -99.5,-99.49997 z"
     stroke="#042433"
     stroke-width="6.875"
     stroke-miterlimit="8"
     fill="#fd818d"
     fill-rule="evenodd"
     id="path16" /><text
     font-family="Aptos, Aptos_MSFontService, sans-serif"
     font-weight="400"
     font-size="83px"
     id="text16"
     x="2463.1316"
     y="661.76428">Stop</text><path
     d="m 1644.6632,636.27579 327,-107.5 327,107.5 -327,107.5 z"
     stroke="#042433"
     stroke-width="6.875"
     stroke-miterlimit="8"
     fill="#e97132"
     fill-rule="evenodd"
     id="path17" /><text
     font-family="Aptos, Aptos_MSFontService, sans-serif"
     font-weight="700"
     font-size="83px"
     id="text17"
     x="1777.9857"
     y="662.68445"
     style="font-size:74.6667px"><tspan
       style="font-weight:normal"
       id="tspan45">Threshold?</tspan></text><rect
     x="1139.6632"
     y="14.775787"
     width="628"
     height="119"
     stroke="#042433"
     stroke-width="6.875"
     stroke-miterlimit="8"
     fill="#dbdbff"
     id="rect18" /><text
     font-family="Aptos, Aptos_MSFontService, sans-serif"
     font-weight="400"
     font-size="83px"
     id="text19"
     x="1285.5432"
     y="100.27579">Selection</text><rect
     x="1139.6632"
     y="172.77579"
     width="628"
     height="119"
     stroke="#042433"
     stroke-width="6.875"
     stroke-miterlimit="8"
     fill="#dbdbff"
     id="rect19" /><text
     font-family="Aptos, Aptos_MSFontService, sans-serif"
     font-weight="400"
     font-size="83px"
     id="text20"
     x="1272.5833"
     y="258.27579">Crossover</text><rect
     x="1139.6632"
     y="329.77579"
     width="628"
     height="119"
     stroke="#042433"
     stroke-width="6.875"
     stroke-miterlimit="8"
     fill="#dbdbff"
     id="rect20" /><text
     font-family="Aptos, Aptos_MSFontService, sans-serif"
     font-weight="400"
     font-size="83px"
     id="text21"
     x="1294.0933"
     y="415.27579">Mutation</text><path
     d="m 1458.3232,131.16636 v 31.85461 h -10.32 v -31.85461 z m 10.31,30.23199 -15.47,9.73608 -15.47,-9.73608 z"
     id="path21"
     style="stroke-width:0.560987" /><path
     d="m 1458.3232,291.07604 v 31.27941 h -10.32 v -31.27941 z m 10.31,29.64597 -15.47,9.8009 -15.47,-9.8009 z"
     id="path22"
     style="stroke-width:0.562852" /><path
     d="m 1019.1632,625.11579 h 287.483 v 10.32 h -287.483 z m 282.0321,-10.31 32.6844,15.47 -32.6844,15.47 z"
     id="path25"
     style="stroke-width:1.1218" /><path
     d="M 1971.1632,527.88579 V 67.034277"
     stroke="#000000"
     stroke-width="9.95436"
     stroke-miterlimit="8"
     fill="none"
     fill-rule="evenodd"
     id="path27" /><path
     d="m 1969.1067,66.878027 -183.1677,3.3e-4 v 10.3125 l 183.1677,-3.3e-4 z m -179.7821,-10.31215 -20.3148,15.46876 20.3148,15.46874 z"
     id="path28"
     style="stroke-width:1.14672" /><path
     d="m 696.83559,424.03861 v 26.31197 h -8.76952 v -26.31197 z m 0,35.0798 v 26.31196 h -8.76952 v -26.31196 z m 0,35.07978 v 26.31198 h -8.77037 l 8.5e-4,-26.31198 z m 0,35.0798 v 4.6603 h -8.77037 v -4.6603 z m 8.76952,0.27213 -13.15428,26.31197 -13.15514,-26.31197 z"
     id="path30-9"
     style="stroke-width:0.850419" /><text
     font-family="Aptos, Aptos_MSFontService, sans-serif"
     font-weight="400"
     font-size="83px"
     id="text30"
     x="2294.9329"
     y="610.47363"><tspan
       style="font-style:italic"
       id="tspan46">Yes</tspan></text><text
     font-family="Aptos, Aptos_MSFontService, sans-serif"
     font-weight="400"
     font-size="83px"
     id="text31"
     x="2008.5387"
     y="522.32941"><tspan
       style="font-style:italic"
       id="tspan47">No</tspan></text><path
     d="m 280.02873,578.00866 h 2.391 l -5.836,26.019 c -0.594,2.648 -0.892,4.647 -0.892,5.998 0,1.079 0.176,1.869 0.527,2.349 0.351,0.49 0.905,0.73 1.662,0.73 0.81,0 1.675,-0.33 2.594,-0.99 0.918,-0.66 2.215,-1.927 3.89,-3.791 l 2.31,2.269 c -2.648,2.782 -4.795,4.672 -6.444,5.672 -1.648,1 -3.498,1.5 -5.552,1.5 -1.756,0 -3.161,-0.64 -4.215,-1.92 -1.053,-1.29 -1.58,-2.93 -1.58,-4.927 0,-2.054 0.378,-4.675 1.135,-7.863 l 3.039,-13.252 c 0.622,-2.702 0.932,-4.728 0.932,-6.079 0,-1.216 -0.29,-2.04 -0.871,-2.472 -0.581,-0.433 -1.723,-0.676 -3.425,-0.73 l 0.446,-2.148 z m -1.094,-15.522 h 7.173 l -1.864,7.863 h -7.174 z"
     fill-rule="evenodd"
     id="path32" /><path
     d="m 309.13173,599.12366 h 49.93 v 5.39 h -49.93 z m 0,-16.819 h 49.93 v 5.39 h -49.93 z"
     fill-rule="evenodd"
     id="path33" /><text
     fill="#000000"
     fill-opacity="0"
     font-family="Arial, Arial_MSFontService, sans-serif"
     font-size="22.209px"
     x="309.13177"
     y="601.73767"
     id="text34">=</text><path
     d="m 398.86373,564.59466 c -1.864,0 -3.425,0.554 -4.681,1.661 -1.256,1.108 -2.27,2.702 -3.04,4.783 -0.77,2.08 -1.317,4.613 -1.641,7.599 -0.324,2.985 -0.486,6.356 -0.486,10.111 0,8.808 0.817,15.272 2.452,19.392 1.634,4.124 4.167,6.184 7.599,6.184 3.269,0 5.694,-1.94 7.274,-5.819 1.581,-3.877 2.371,-9.882 2.371,-18.014 0,-6.214 -0.405,-11.247 -1.216,-15.097 -0.81,-3.85 -1.938,-6.612 -3.384,-8.287 -1.445,-1.676 -3.195,-2.513 -5.248,-2.513 z m 0.203,-3.445 c 5.917,0 10.321,2.283 13.211,6.849 2.891,4.566 4.337,11.469 4.337,20.71 0,9.564 -1.547,16.798 -4.641,21.702 -3.093,4.904 -7.612,7.354 -13.556,7.354 -5.836,0 -10.179,-2.29 -13.029,-6.888 -2.851,-4.593 -4.276,-11.564 -4.276,-20.912 0,-4.971 0.439,-9.267 1.317,-12.888 0.878,-3.62 2.107,-6.612 3.688,-8.977 1.581,-2.364 3.479,-4.113 5.694,-5.248 2.216,-1.135 4.634,-1.702 7.255,-1.702 z"
     fill-rule="evenodd"
     id="path34" /><text
     fill="#000000"
     fill-opacity="0"
     font-family="Arial, Arial_MSFontService, sans-serif"
     font-size="56.6167px"
     x="381.11273"
     y="610.6897"
     id="text35">0</text><path
     d="m 1845.6698,17.526572 h 2.4 l -5.84,26.021 c -0.59,2.65 -0.89,4.64 -0.89,6 0,1.08 0.17,1.86 0.52,2.35 0.36,0.48 0.91,0.73 1.67,0.73 0.81,0 1.67,-0.34 2.59,-1 0.92,-0.66 2.22,-1.92 3.89,-3.79 l 2.31,2.27 c -2.65,2.79 -4.79,4.68 -6.44,5.68 -1.65,1 -3.5,1.5 -5.56,1.5 -1.75,0 -3.16,-0.65 -4.21,-1.93 -1.05,-1.28 -1.58,-2.92 -1.58,-4.92 0,-2.06 0.38,-4.68 1.13,-7.865 l 3.04,-13.253 c 0.63,-2.702 0.94,-4.728 0.94,-6.079 0,-1.216 -0.29,-2.04 -0.88,-2.472 -0.58,-0.432 -1.72,-0.676 -3.42,-0.73 l 0.45,-2.148 z m -1.09,-15.522 h 7.17 l -1.86,7.862 h -7.17 z"
     fill-rule="evenodd"
     id="path35" /><text
     fill="#000000"
     fill-opacity="0"
     font-family="Arial, Arial_MSFontService, sans-serif"
     font-size="55.2793px"
     x="1834.5297"
     y="50.37759"
     id="text36">ğ‘–</text><path
     d="m 1892.2798,6.867572 h 5.76 v 23.344 h 22.08 v 5.39 h -22.08 v 23.346 h -5.76 v -23.346 h -22.09 v -5.39 h 22.09 z"
     fill-rule="evenodd"
     id="path36" /><text
     fill="#000000"
     fill-opacity="0"
     font-family="Arial, Arial_MSFontService, sans-serif"
     font-size="52.0776px"
     x="1870.1898"
     y="52.437588"
     id="text37">+</text><path
     d="m 1932.0698,38.640572 h 49.93 v 5.387 h -49.93 z m 0,-16.818 h 49.93 v 5.39 h -49.93 z"
     fill-rule="evenodd"
     id="path37" /><text
     fill="#000000"
     fill-opacity="0"
     font-family="Arial, Arial_MSFontService, sans-serif"
     font-size="22.209px"
     x="1932.0697"
     y="41.254543"
     id="text38">=</text><path
     d="m 2028.9998,0.66657204 h 2.23 c -0.16,2.59399996 -0.24,6.18799996 -0.24,10.78099996 v 34.61 c 0,1.57 0.09,2.75 0.26,3.55 0.18,0.79 0.49,1.44 0.93,1.94 0.45,0.5 1.09,0.89 1.93,1.18 0.84,0.28 1.89,0.5 3.16,0.65 1.27,0.14 2.95,0.25 5.03,0.3 v 2.96 h -29.95 v -2.96 c 3,-0.14 5.14,-0.32 6.42,-0.55 1.28,-0.23 2.26,-0.57 2.94,-1.03 0.67,-0.46 1.17,-1.11 1.48,-1.95 0.31,-0.83 0.46,-2.2 0.46,-4.09 v -32.868 c 0,-1.08 -0.19,-1.871 -0.56,-2.371 -0.38,-0.499 -0.94,-0.749 -1.67,-0.749 -0.86,0 -2.09,0.445 -3.68,1.337 -1.6,0.892 -3.57,2.121 -5.92,3.688 l -1.78,-3.121 z"
     fill-rule="evenodd"
     id="path38" /><text
     fill="#000000"
     fill-opacity="0"
     font-family="Arial, Arial_MSFontService, sans-serif"
     font-size="55.9683px"
     x="2010.0397"
     y="49.637539"
     id="text39">1</text><path
     d="m 1458.3232,449.35061 v 94.29114 h -10.32 v -94.29114 z m 10.31,91.13853 -15.47,18.90344 -15.47,-18.90344 z"
     id="path39"
     style="stroke-width:0.78165" /><text
     font-family="Aptos, Aptos_MSFontService, sans-serif"
     font-weight="400"
     font-size="83px"
     id="text40"
     x="1479.4832"
     y="526.27576"
     style="font-style:normal;font-variant:normal;font-weight:normal;font-stretch:normal;font-size:64px;font-family:Aptos, Aptos_MSFontService, sans-serif;-inkscape-font-specification:'Aptos, Aptos_MSFontService, sans-serif'"><tspan
       style="font-style:italic"
       id="tspan44">Update </tspan></text><text
     font-family="Aptos, Aptos_MSFontService, sans-serif"
     font-weight="400"
     font-size="83px"
     id="text40-0"
     x="723.99634"
     y="524.71313"
     style="font-style:normal;font-variant:normal;font-weight:normal;font-stretch:normal;font-size:64px;font-family:Aptos, Aptos_MSFontService, sans-serif;-inkscape-font-specification:'Aptos, Aptos_MSFontService, sans-serif'"><tspan
       style="font-style:italic;font-size:64px"
       id="tspan43">Generate</tspan></text><text
     font-family="Aptos, Aptos_MSFontService, sans-serif"
     font-weight="400"
     font-size="83px"
     id="text40-0-2"
     x="1037.3938"
     y="604.46741"
     style="font-style:normal;font-variant:normal;font-weight:normal;font-stretch:normal;font-size:64px;font-family:Aptos, Aptos_MSFontService, sans-serif;-inkscape-font-specification:'Aptos, Aptos_MSFontService, sans-serif'"><tspan
       sodipodi:role="line"
       id="tspan41"
       x="1037.3938"
       y="604.46741"
       style="font-style:italic">Evaluate</tspan><tspan
       sodipodi:role="line"
       id="tspan42"
       x="1037.3938"
       y="684.46741"
       style="font-style:italic" /></text><text
     xml:space="preserve"
     style="font-style:normal;font-variant:normal;font-weight:normal;font-stretch:normal;font-size:74.6667px;font-family:Aptos, Aptos_MSFontService, sans-serif;-inkscape-font-specification:'Aptos, Aptos_MSFontService, sans-serif';fill:#333333;stroke:#000000;stroke-width:0.666667"
     x="1459.6923"
     y="665.5434"
     id="text49"><tspan
       sodipodi:role="line"
       id="tspan49"
       x="1459.6923"
       y="665.5434"
       style="font-style:italic">G</tspan></text><text
     xml:space="preserve"
     style="font-style:normal;font-variant:normal;font-weight:normal;font-stretch:normal;font-size:74.6667px;font-family:Aptos, Aptos_MSFontService, sans-serif;-inkscape-font-specification:'Aptos, Aptos_MSFontService, sans-serif';fill:#333333;stroke:#000000;stroke-width:0.666667"
     x="1727.526"
     y="525.46515"
     id="text49-4"><tspan
       sodipodi:role="line"
       id="tspan49-5"
       x="1727.526"
       y="525.46515"
       style="font-style:italic">G</tspan></text></svg>
